<svg width="40" height="40" viewBox="0 0 40 40" fill="none" xmlns="http://www.w3.org/2000/svg">
<circle cx="20" cy="20" r="20" fill="#000AFF"/>
<path d="M3.76562 13.8281C4.09896 13.9115 4.41667 13.974 4.71875 14.0156C5.02083 14.0573 5.28646 14.0885 5.51562 14.1094C5.78646 14.1406 6.03646 14.151 6.26562 14.1406C6.55729 14.1406 6.92188 14.1146 7.35938 14.0625C7.80729 14.0104 8.26562 13.9635 8.73438 13.9219C9.20312 13.8698 9.65104 13.8385 10.0781 13.8281C10.5156 13.8073 10.8698 13.8333 11.1406 13.9062C11.4115 13.9688 11.6875 14.0677 11.9688 14.2031C12.2604 14.3281 12.526 14.4896 12.7656 14.6875C13.0052 14.875 13.2031 15.099 13.3594 15.3594C13.5156 15.6094 13.6042 15.8958 13.625 16.2188C13.6146 16.625 13.5208 17.0052 13.3438 17.3594C13.1979 17.6615 12.9531 17.974 12.6094 18.2969C12.2656 18.6094 11.7708 18.849 11.125 19.0156C11.4479 19.0573 11.724 19.1302 11.9531 19.2344C12.1927 19.3281 12.3958 19.4427 12.5625 19.5781C12.7396 19.7031 12.8802 19.8438 12.9844 20C13.099 20.1562 13.1875 20.3125 13.25 20.4688C13.4062 20.8333 13.4792 21.2396 13.4688 21.6875C13.4062 22.2708 13.2865 22.7344 13.1094 23.0781C12.9427 23.4219 12.75 23.6875 12.5312 23.875C12.3125 24.0625 12.0885 24.1927 11.8594 24.2656C11.6302 24.3385 11.4219 24.3958 11.2344 24.4375C11.0469 24.4792 10.8177 24.5 10.5469 24.5C10.276 24.5 9.98438 24.4948 9.67188 24.4844C9.36979 24.4635 9.05729 24.4479 8.73438 24.4375C8.41146 24.4167 8.10417 24.4167 7.8125 24.4375C7.57292 24.4583 7.28125 24.4792 6.9375 24.5C6.64583 24.5208 6.28125 24.5469 5.84375 24.5781C5.40625 24.599 4.89583 24.625 4.3125 24.6562C4.42708 24.5729 4.52083 24.4792 4.59375 24.375C4.67708 24.2604 4.74479 24.1615 4.79688 24.0781C4.84896 23.974 4.89583 23.875 4.9375 23.7812C4.96875 23.6979 4.99479 23.4688 5.01562 23.0938C5.03646 22.7188 5.05208 22.2708 5.0625 21.75C5.07292 21.2188 5.07812 20.651 5.07812 20.0469C5.08854 19.4323 5.08333 18.8438 5.0625 18.2812C5.05208 17.7083 5.03125 17.2031 5 16.7656C4.97917 16.3177 4.94792 15.9948 4.90625 15.7969C4.84375 15.5781 4.76042 15.3542 4.65625 15.125C4.57292 14.9271 4.45312 14.7135 4.29688 14.4844C4.15104 14.2552 3.97396 14.0365 3.76562 13.8281ZM7.0625 15.4219C7.0625 15.4635 7.06771 15.6042 7.07812 15.8438C7.08854 16.0521 7.09896 16.375 7.10938 16.8125C7.13021 17.2396 7.15625 17.849 7.1875 18.6406C7.44792 18.7552 7.70312 18.8177 7.95312 18.8281C8.20312 18.8281 8.42708 18.8177 8.625 18.7969C8.85417 18.7656 9.07292 18.7135 9.28125 18.6406C9.5625 18.526 9.78125 18.3385 9.9375 18.0781C10.1042 17.8177 10.2135 17.5469 10.2656 17.2656C10.3281 16.974 10.3438 16.7031 10.3125 16.4531C10.2812 16.1927 10.2135 16.0052 10.1094 15.8906C9.91146 15.7135 9.66667 15.5677 9.375 15.4531C9.125 15.3594 8.80729 15.2969 8.42188 15.2656C8.04688 15.224 7.59375 15.276 7.0625 15.4219ZM6.98438 22.8281C7.36979 23.026 7.70833 23.1562 8 23.2188C8.29167 23.2812 8.53646 23.3125 8.73438 23.3125C8.96354 23.3125 9.16146 23.2812 9.32812 23.2188C9.52604 23.125 9.71875 23 9.90625 22.8438C10.1042 22.6771 10.25 22.4844 10.3438 22.2656C10.4479 22.0365 10.4896 21.7865 10.4688 21.5156C10.4479 21.2344 10.3281 20.9271 10.1094 20.5938C9.91146 20.3542 9.67188 20.1667 9.39062 20.0312C9.14062 19.9167 8.82292 19.8438 8.4375 19.8125C8.0625 19.7812 7.59896 19.8698 7.04688 20.0781L6.98438 22.8281ZM13.875 13.8281C14.2083 13.9115 14.526 13.974 14.8281 14.0156C15.1302 14.0573 15.3958 14.0885 15.625 14.1094C15.8958 14.1406 16.1458 14.151 16.375 14.1406C16.6667 14.1406 17.0312 14.1146 17.4688 14.0625C17.9167 14.0104 18.375 13.9635 18.8438 13.9219C19.3125 13.8698 19.7604 13.8385 20.1875 13.8281C20.625 13.8073 20.9792 13.8333 21.25 13.9062C21.5208 13.9688 21.7969 14.0677 22.0781 14.2031C22.3698 14.3281 22.6354 14.4896 22.875 14.6875C23.1146 14.875 23.3125 15.099 23.4688 15.3594C23.625 15.6094 23.7135 15.8958 23.7344 16.2188C23.724 16.625 23.6302 17.0052 23.4531 17.3594C23.3073 17.6615 23.0625 17.974 22.7188 18.2969C22.375 18.6094 21.8802 18.849 21.2344 19.0156C21.5573 19.0573 21.8333 19.1302 22.0625 19.2344C22.3021 19.3281 22.5052 19.4427 22.6719 19.5781C22.849 19.7031 22.9896 19.8438 23.0938 20C23.2083 20.1562 23.2969 20.3125 23.3594 20.4688C23.5156 20.8333 23.5885 21.2396 23.5781 21.6875C23.5156 22.2708 23.3958 22.7344 23.2188 23.0781C23.0521 23.4219 22.8594 23.6875 22.6406 23.875C22.4219 24.0625 22.1979 24.1927 21.9688 24.2656C21.7396 24.3385 21.5312 24.3958 21.3438 24.4375C21.1562 24.4792 20.9271 24.5 20.6562 24.5C20.3854 24.5 20.0938 24.4948 19.7812 24.4844C19.4792 24.4635 19.1667 24.4479 18.8438 24.4375C18.5208 24.4167 18.2135 24.4167 17.9219 24.4375C17.6823 24.4583 17.3906 24.4792 17.0469 24.5C16.7552 24.5208 16.3906 24.5469 15.9531 24.5781C15.5156 24.599 15.0052 24.625 14.4219 24.6562C14.5365 24.5729 14.6302 24.4792 14.7031 24.375C14.7865 24.2604 14.8542 24.1615 14.9062 24.0781C14.9583 23.974 15.0052 23.875 15.0469 23.7812C15.0781 23.6979 15.1042 23.4688 15.125 23.0938C15.1458 22.7188 15.1615 22.2708 15.1719 21.75C15.1823 21.2188 15.1875 20.651 15.1875 20.0469C15.1979 19.4323 15.1927 18.8438 15.1719 18.2812C15.1615 17.7083 15.1406 17.2031 15.1094 16.7656C15.0885 16.3177 15.0573 15.9948 15.0156 15.7969C14.9531 15.5781 14.8698 15.3542 14.7656 15.125C14.6823 14.9271 14.5625 14.7135 14.4062 14.4844C14.2604 14.2552 14.0833 14.0365 13.875 13.8281ZM17.1719 15.4219C17.1719 15.4635 17.1771 15.6042 17.1875 15.8438C17.1979 16.0521 17.2083 16.375 17.2188 16.8125C17.2396 17.2396 17.2656 17.849 17.2969 18.6406C17.5573 18.7552 17.8125 18.8177 18.0625 18.8281C18.3125 18.8281 18.5365 18.8177 18.7344 18.7969C18.9635 18.7656 19.1823 18.7135 19.3906 18.6406C19.6719 18.526 19.8906 18.3385 20.0469 18.0781C20.2135 17.8177 20.3229 17.5469 20.375 17.2656C20.4375 16.974 20.4531 16.7031 20.4219 16.4531C20.3906 16.1927 20.3229 16.0052 20.2188 15.8906C20.0208 15.7135 19.776 15.5677 19.4844 15.4531C19.2344 15.3594 18.9167 15.2969 18.5312 15.2656C18.1562 15.224 17.7031 15.276 17.1719 15.4219ZM17.0938 22.8281C17.4792 23.026 17.8177 23.1562 18.1094 23.2188C18.401 23.2812 18.6458 23.3125 18.8438 23.3125C19.0729 23.3125 19.2708 23.2812 19.4375 23.2188C19.6354 23.125 19.8281 23 20.0156 22.8438C20.2135 22.6771 20.3594 22.4844 20.4531 22.2656C20.5573 22.0365 20.599 21.7865 20.5781 21.5156C20.5573 21.2344 20.4375 20.9271 20.2188 20.5938C20.0208 20.3542 19.7812 20.1667 19.5 20.0312C19.25 19.9167 18.9323 19.8438 18.5469 19.8125C18.1719 19.7812 17.7083 19.8698 17.1562 20.0781L17.0938 22.8281ZM30.3281 13.7188C30.9948 13.7083 31.5417 13.8281 31.9688 14.0781C32.4062 14.3281 32.7604 14.625 33.0312 14.9688C33.3021 15.3125 33.5104 15.6615 33.6562 16.0156C33.8021 16.3594 33.9167 16.6302 34 16.8281C34.0208 16.8802 34.0625 16.9479 34.125 17.0312C34.1771 17.1042 34.25 17.1927 34.3438 17.2969C34.4479 17.3906 34.5781 17.5 34.7344 17.625C34.4115 17.6354 34.125 17.6458 33.875 17.6562C33.625 17.6562 33.4115 17.6615 33.2344 17.6719C33.0365 17.6823 32.8594 17.6927 32.7031 17.7031C32.5469 17.7135 32.3542 17.7292 32.125 17.75C31.9167 17.7708 31.6615 17.7917 31.3594 17.8125C31.0573 17.8333 30.6875 17.8646 30.25 17.9062C30.5104 17.5938 30.7135 17.3177 30.8594 17.0781C31.0156 16.8281 31.1302 16.6094 31.2031 16.4219C31.2865 16.224 31.3333 16.0521 31.3438 15.9062C31.3646 15.7604 31.3594 15.6354 31.3281 15.5312C31.2656 15.2917 31.1042 15.1198 30.8438 15.0156C30.0938 14.8073 29.4375 14.974 28.875 15.5156C28.3229 16.0469 27.9271 16.9219 27.6875 18.1406C27.5729 18.7448 27.4635 19.375 27.3594 20.0312C27.2656 20.6771 27.2292 21.2708 27.25 21.8125C27.2708 22.3438 27.375 22.776 27.5625 23.1094C27.75 23.4427 28.0729 23.599 28.5312 23.5781C28.9792 23.5573 29.3594 23.4844 29.6719 23.3594C29.9844 23.224 30.2344 23.0677 30.4219 22.8906C30.6094 22.7031 30.7396 22.5052 30.8125 22.2969C30.8958 22.0781 30.9271 21.875 30.9062 21.6875C30.8646 21.5417 30.7552 21.3854 30.5781 21.2188C30.4219 21.0729 30.1875 20.9115 29.875 20.7344C29.5625 20.5469 29.1146 20.3542 28.5312 20.1562C29.0833 20.125 29.5365 20.1042 29.8906 20.0938C30.2552 20.0729 30.5417 20.0521 30.75 20.0312C31 20.0104 31.1927 19.9948 31.3281 19.9844C31.4531 19.974 31.6354 19.9635 31.875 19.9531C32.0833 19.9427 32.349 19.9375 32.6719 19.9375C33.0052 19.9375 33.4219 19.9323 33.9219 19.9219C33.7344 20.1094 33.5885 20.2812 33.4844 20.4375C33.4323 20.5208 33.3854 20.5938 33.3438 20.6562C33.3021 20.7604 33.2865 20.974 33.2969 21.2969C33.2969 21.5677 33.3177 21.9688 33.3594 22.5C33.401 23.0208 33.4792 23.7344 33.5938 24.6406L31.5156 24.9219L31.6094 22.8125C31.3698 23.3854 31.0677 23.8125 30.7031 24.0938C30.349 24.375 30.0104 24.5729 29.6875 24.6875C29.3021 24.8229 28.901 24.8854 28.4844 24.875C27.9427 24.8229 27.401 24.6979 26.8594 24.5C26.3177 24.3021 25.8385 24 25.4219 23.5938C25.0052 23.1771 24.6823 22.6406 24.4531 21.9844C24.2344 21.3281 24.1667 20.5156 24.25 19.5469C24.3438 18.5781 24.5729 17.7344 24.9375 17.0156C25.3125 16.2865 25.776 15.6823 26.3281 15.2031C26.8802 14.724 27.5 14.3646 28.1875 14.125C28.8854 13.875 29.599 13.7396 30.3281 13.7188Z" fill="white"/>
</svg>
